<?xml version="1.0" encoding="UTF-8"?>
<svg width="23px" height="23px" viewBox="0 0 23 23" version="1.1" xmlns="http://www.w3.org/2000/svg" xmlns:xlink="http://www.w3.org/1999/xlink">
    <!-- Generator: Sketch 42 (36781) - http://www.bohemiancoding.com/sketch -->
    <title>servers</title>
    <desc>Created with Sketch.</desc>
    <defs></defs>
    <g id="Page-1" stroke="none" stroke-width="1" fill="none" fill-rule="evenodd">
        <g id="Full-Color" transform="translate(-151.000000, -201.000000)">
            <g id="servers" transform="translate(151.000000, 201.000000)">
                <polygon id="Fill-93" fill="#339EFF" points="18.5 0.5031 4.5 0.5031 0.5 4.5031 0.5 22.5031 22.5 22.5031 22.5 4.5031"></polygon>
                <path d="M6,19.5031 C6,19.2271 6.224,19.0031 6.5,19.0031 L9.5,19.0031 C9.776,19.0031 10,19.2271 10,19.5031 C10,19.7791 9.776,20.0031 9.5,20.0031 L6.5,20.0031 C6.224,20.0031 6,19.7791 6,19.5031 L6,19.5031 Z M3.5,19.0031 C3.776,19.0031 4,19.2281 4,19.5031 C4,19.7781 3.776,20.0031 3.5,20.0031 C3.224,20.0031 3,19.7781 3,19.5031 C3,19.2281 3.224,19.0031 3.5,19.0031 L3.5,19.0031 Z M3.5,21.0031 C4.327,21.0031 5,20.3301 5,19.5031 C5,18.6761 4.327,18.0031 3.5,18.0031 C2.673,18.0031 2,18.6761 2,19.5031 C2,20.3301 2.673,21.0031 3.5,21.0031 L3.5,21.0031 Z M15,19.5031 C15,19.2271 15.224,19.0031 15.5,19.0031 C15.776,19.0031 16,19.2271 16,19.5031 C16,19.7791 15.776,20.0031 15.5,20.0031 C15.224,20.0031 15,19.7791 15,19.5031 L15,19.5031 Z M17,19.5031 C17,19.2271 17.224,19.0031 17.5,19.0031 C17.776,19.0031 18,19.2271 18,19.5031 C18,19.7791 17.776,20.0031 17.5,20.0031 C17.224,20.0031 17,19.7791 17,19.5031 L17,19.5031 Z M19,19.5031 C19,19.2271 19.224,19.0031 19.5,19.0031 C19.776,19.0031 20,19.2271 20,19.5031 C20,19.7791 19.776,20.0031 19.5,20.0031 C19.224,20.0031 19,19.7791 19,19.5031 L19,19.5031 Z M10,13.5031 C10,13.7791 9.776,14.0031 9.5,14.0031 L6.5,14.0031 C6.224,14.0031 6,13.7791 6,13.5031 C6,13.2271 6.224,13.0031 6.5,13.0031 L9.5,13.0031 C9.776,13.0031 10,13.2271 10,13.5031 L10,13.5031 Z M3.5,14.0031 C3.224,14.0031 3,13.7781 3,13.5031 C3,13.2281 3.224,13.0031 3.5,13.0031 C3.776,13.0031 4,13.2281 4,13.5031 C4,13.7781 3.776,14.0031 3.5,14.0031 L3.5,14.0031 Z M3.5,12.0031 C2.673,12.0031 2,12.6761 2,13.5031 C2,14.3301 2.673,15.0031 3.5,15.0031 C4.327,15.0031 5,14.3301 5,13.5031 C5,12.6761 4.327,12.0031 3.5,12.0031 L3.5,12.0031 Z M16,13.5031 C16,13.7791 15.776,14.0031 15.5,14.0031 C15.224,14.0031 15,13.7791 15,13.5031 C15,13.2271 15.224,13.0031 15.5,13.0031 C15.776,13.0031 16,13.2271 16,13.5031 L16,13.5031 Z M18,13.5031 C18,13.7791 17.776,14.0031 17.5,14.0031 C17.224,14.0031 17,13.7791 17,13.5031 C17,13.2271 17.224,13.0031 17.5,13.0031 C17.776,13.0031 18,13.2271 18,13.5031 L18,13.5031 Z M20,13.5031 C20,13.7791 19.776,14.0031 19.5,14.0031 C19.224,14.0031 19,13.7791 19,13.5031 C19,13.2271 19.224,13.0031 19.5,13.0031 C19.776,13.0031 20,13.2271 20,13.5031 L20,13.5031 Z M6,7.5031 C6,7.2271 6.224,7.0031 6.5,7.0031 L9.5,7.0031 C9.776,7.0031 10,7.2271 10,7.5031 C10,7.7791 9.776,8.0031 9.5,8.0031 L6.5,8.0031 C6.224,8.0031 6,7.7791 6,7.5031 L6,7.5031 Z M3.5,7.0031 C3.776,7.0031 4,7.2281 4,7.5031 C4,7.7781 3.776,8.0031 3.5,8.0031 C3.224,8.0031 3,7.7781 3,7.5031 C3,7.2281 3.224,7.0031 3.5,7.0031 L3.5,7.0031 Z M3.5,9.0031 C4.327,9.0031 5,8.3301 5,7.5031 C5,6.6761 4.327,6.0031 3.5,6.0031 C2.673,6.0031 2,6.6761 2,7.5031 C2,8.3301 2.673,9.0031 3.5,9.0031 L3.5,9.0031 Z M15,7.5031 C15,7.2271 15.224,7.0031 15.5,7.0031 C15.776,7.0031 16,7.2271 16,7.5031 C16,7.7791 15.776,8.0031 15.5,8.0031 C15.224,8.0031 15,7.7791 15,7.5031 L15,7.5031 Z M17,7.5031 C17,7.2271 17.224,7.0031 17.5,7.0031 C17.776,7.0031 18,7.2271 18,7.5031 C18,7.7791 17.776,8.0031 17.5,8.0031 C17.224,8.0031 17,7.7791 17,7.5031 L17,7.5031 Z M19,7.5031 C19,7.2271 19.224,7.0031 19.5,7.0031 C19.776,7.0031 20,7.2271 20,7.5031 C20,7.7791 19.776,8.0031 19.5,8.0031 C19.224,8.0031 19,7.7791 19,7.5031 L19,7.5031 Z M4.707,1.0031 L18.293,1.0031 L21.293,4.0031 L1.707,4.0031 L4.707,1.0031 Z M1,22.0031 L22,22.0031 L22,17.0031 L1,17.0031 L1,22.0031 Z M1,10.0031 L22,10.0031 L22,5.0031 L1,5.0031 L1,10.0031 Z M1,16.0031 L22,16.0031 L22,11.0031 L1,11.0031 L1,16.0031 Z M0,10.5031 L0,16.5031 L0,22.5031 C0,22.7791 0.224,23.0031 0.5,23.0031 L22.5,23.0031 C22.776,23.0031 23,22.7791 23,22.5031 L23,16.5031 L23,10.5031 L23,4.5031 C23,4.4811 22.99,4.4611 22.987,4.4401 C22.984,4.4171 22.98,4.3981 22.974,4.3751 C22.951,4.2891 22.914,4.2101 22.853,4.1491 L18.854,0.1491 C18.76,0.0561 18.633,0.0031 18.5,0.0031 L4.5,0.0031 C4.367,0.0031 4.24,0.0561 4.146,0.1491 L0.147,4.1491 C0.086,4.2101 0.049,4.2891 0.026,4.3751 C0.02,4.3981 0.016,4.4171 0.013,4.4401 C0.01,4.4611 0,4.4811 0,4.5031 L0,10.5031 Z" id="Fill-204" fill="#000000"></path>
                <path d="M0,20.5031 L0,22.5031 C0,22.7791 0.224,23.0031 0.5,23.0031 L22.5,23.0031 C22.776,23.0031 23,22.7791 23,22.5031 L23,20.5031 C23,20.2271 22.776,20.0031 22.5,20.0031 L0.5,20.0031 C0.224,20.0031 0,20.2271 0,20.5031" id="Fill-341" fill="#000000" opacity="0.119999997"></path>
            </g>
        </g>
    </g>
</svg>